<?xml version="1.0" encoding="UTF-8" standalone="no"?>
<svg width="179px" height="239px" viewBox="0 0 179 239" version="1.1" xmlns="http://www.w3.org/2000/svg" xmlns:xlink="http://www.w3.org/1999/xlink">
    <!-- Generator: Sketch 3.7 (28169) - http://www.bohemiancoding.com/sketch -->
    <title>gnome</title>
    <desc>Created with Sketch.</desc>
    <defs>
        <linearGradient x1="23.3007714%" y1="-1.87711649%" x2="76.9026121%" y2="101.895509%" id="linearGradient-1">
            <stop stop-color="#EEEEEE" stop-opacity="0.282070879" offset="0%"></stop>
            <stop stop-color="#C2C2C2" offset="100%"></stop>
        </linearGradient>
        <linearGradient x1="27.035807%" y1="-9.11957711%" x2="70.5966399%" y2="104.557707%" id="linearGradient-2">
            <stop stop-color="#F6EADC" offset="0%"></stop>
            <stop stop-color="#E8CFB5" offset="100%"></stop>
        </linearGradient>
        <rect id="path-3" x="95" y="101" width="36" height="28" rx="6"></rect>
        <mask id="mask-4" maskContentUnits="userSpaceOnUse" maskUnits="objectBoundingBox" x="0" y="0" width="36" height="28" fill="white">
            <use xlink:href="#path-3"></use>
        </mask>
        <rect id="path-5" x="44" y="101" width="36" height="28" rx="6"></rect>
        <mask id="mask-6" maskContentUnits="userSpaceOnUse" maskUnits="objectBoundingBox" x="0" y="0" width="36" height="28" fill="white">
            <use xlink:href="#path-5"></use>
        </mask>
        <rect id="path-7" x="45" y="102" width="34" height="26" rx="6"></rect>
        <mask id="mask-8" maskContentUnits="userSpaceOnUse" maskUnits="objectBoundingBox" x="0" y="0" width="34" height="26" fill="white">
            <use xlink:href="#path-7"></use>
        </mask>
        <rect id="path-9" x="96" y="102" width="34" height="26" rx="6"></rect>
        <mask id="mask-10" maskContentUnits="userSpaceOnUse" maskUnits="objectBoundingBox" x="0" y="0" width="34" height="26" fill="white">
            <use xlink:href="#path-9"></use>
        </mask>
        <rect id="path-11" x="79" y="108" width="16" height="7"></rect>
        <mask id="mask-12" maskContentUnits="userSpaceOnUse" maskUnits="objectBoundingBox" x="0" y="0" width="16" height="7" fill="white">
            <use xlink:href="#path-11"></use>
        </mask>
        <rect id="path-13" x="71" y="102" width="32" height="3"></rect>
        <mask id="mask-14" maskContentUnits="userSpaceOnUse" maskUnits="objectBoundingBox" x="0" y="0" width="32" height="3" fill="white">
            <use xlink:href="#path-13"></use>
        </mask>
        <linearGradient x1="13.7752757%" y1="-30.6265024%" x2="65.8318015%" y2="122.76893%" id="linearGradient-15">
            <stop stop-color="#FFFFFF" stop-opacity="0.5" offset="0%"></stop>
            <stop stop-color="#000000" stop-opacity="0.5" offset="100%"></stop>
        </linearGradient>
        <ellipse id="path-16" cx="87" cy="125" rx="17" ry="13"></ellipse>
    </defs>
    <g id="Page-1" stroke="none" stroke-width="1" fill="none" fill-rule="evenodd">
        <g id="Artboard-1" transform="translate(-59.000000, -18.000000)">
            <g id="gnome" transform="translate(60.000000, 20.000000)">
                <circle id="Oval-2" fill-opacity="0.278759058" fill="#54C7FC" cx="87.5" cy="87.5" r="87.5"></circle>
                <path d="M34.1988048,205.264505 C23.5209308,198.607477 16.291357,190.001114 15.1269531,180.671875 C12.5292968,159.859375 73.7753906,131.945312 88.5507812,131.945312 C103.326172,131.945312 163.640617,157.695312 163.640625,181.960938 C163.640628,192.061264 155.791327,200.11839 144.181365,206.083299 C144.334432,209.569981 144.425782,213.071487 144.425782,216.462891 C144.425782,234.720838 116.122169,235.293198 88.2640206,235.083984 C60.4058721,234.874771 32.1152344,228.501953 33.1152344,215.626953 C33.3293722,212.869929 33.7188695,209.250527 34.1988048,205.264505 Z" id="Path-2-Copy-2" stroke="#979797" stroke-width="3" fill="#F7F7F7"></path>
                <path d="M143.630859,206.753906 L143.039062,204.933105 L139.775879,171.472412 C139.775879,171.472412 148.726562,166.313477 150.01123,164.161621 C151.295898,162.009766 151.590332,161.622559 151.590332,161.622559 C151.590332,161.622559 160.929932,172.0896 161.532959,173.358154 C162.135986,174.626709 163.543701,181.445557 163.543701,181.445557 C163.543701,181.445557 162.006592,192.143066 157.956787,197.106201 C153.906982,202.069336 147.935547,204.933105 147.935547,204.933105 L143.630859,206.753906 Z" id="Path-22" fill="url(#linearGradient-1)"></path>
                <path d="M19.3528587,206.753906 L18.6636417,204.933105 L14.8632812,171.472412 C14.8632812,171.472412 25.2874033,166.313477 26.78355,164.161621 C28.2796967,162.009766 28.6225992,161.622559 28.6225992,161.622559 C28.6225992,161.622559 39.4996596,172.0896 40.2019558,173.358154 C40.9042519,174.626709 42.5437012,181.445557 42.5437012,181.445557 C42.5437012,181.445557 40.7535568,192.143066 36.0370837,197.106201 C31.3206106,202.069336 24.3661727,204.933105 24.3661727,204.933105 L19.3528587,206.753906 Z" id="Path-22-Copy" fill="url(#linearGradient-1)" transform="translate(28.703491, 184.188232) scale(-1, 1) translate(-28.703491, -184.188232) "></path>
                <path d="M40.1283701,171.827161 C40.1283701,171.827161 35.4192819,202.752715 34.443147,215.320452 C33.4670121,227.888188 61.0824903,234.108918 88.2758007,234.313139 C115.469111,234.517359 143.097254,233.958658 143.097254,216.136439 C143.097254,195.725307 139.707473,171.228516 139.707473,171.228516" id="Path-2-Copy-3" stroke="#979797" fill="#F6F6F6"></path>
                <path d="M88,166.652344 L88,234.568087" id="Path-26" stroke="#3A3A3A" stroke-width="6" opacity="0.5"></path>
                <path d="M34.1988048,205.264505 C23.5209308,198.607477 16.291357,190.001114 15.1269531,180.671875 C12.5292968,159.859375 73.7753906,131.945312 88.5507812,131.945312 C103.326172,131.945312 163.640617,157.695312 163.640625,181.960938 C163.640628,192.061264 155.791327,200.11839 144.181365,206.083299 C144.334432,209.569981 144.425782,213.071487 144.425782,216.462891 C144.425782,234.720838 116.122169,235.293198 88.2640206,235.083984 C60.4058721,234.874771 32.1152344,228.501953 33.1152344,215.626953 C33.3293722,212.869929 33.7188695,209.250527 34.1988048,205.264505 Z" id="Path-2-Copy-2" stroke="#979797" stroke-width="3"></path>
                <g id="amr_flg" transform="translate(60.000000, 179.500000) rotate(7.000000) translate(-60.000000, -179.500000) translate(46.000000, 170.000000)">
                    <rect id="Rectangle-8" fill="#FFFFFF" x="1.42108547e-14" y="-2.84217094e-14" width="27.2432432" height="19" rx="2"></rect>
                    <rect id="Rectangle-8-Copy-2" fill="#EB5768" x="1.42108547e-14" y="-2.84217094e-14" width="27.2511877" height="3.8" rx="2"></rect>
                    <rect id="Rectangle-8-Copy-3" fill="#EB5768" x="0" y="7.6" width="27.2511877" height="3.8"></rect>
                    <rect id="Rectangle-8-Copy-4" fill="#EB5768" x="4.26325641e-14" y="15.2" width="27.2511877" height="3.8" rx="2"></rect>
                    <rect id="Rectangle-8" fill="#4D8BD9" x="1.42108547e-14" y="-2.84217094e-14" width="11.3513514" height="11.4" rx="2"></rect>
                    <polygon id="Shape" fill="#FFFFFF" points="6.05405405 1.57054 7.34772973 4.2028 10.2404324 4.62498 8.14724324 6.67432 8.64140541 9.56764 6.05405405 8.20154 3.4667027 9.56764 3.96086486 6.67432 1.86767568 4.62498 4.76037838 4.2028"></polygon>
                </g>
                <g id="NovoLogo" transform="translate(104.000000, 170.000000)" fill="#FF9600">
                    <g id="NovoBranding">
                        <ellipse id="Oval" cx="12.5178166" cy="12.5001402" rx="1.87998235" ry="1.88502252"></ellipse>
                        <path d="M23.7268423,11.2210883 C23.1362719,6.00289852 18.9970298,1.84795359 13.7921363,1.25908966 C13.6610422,0.658718491 13.1307655,0.230836071 12.5178166,0.230836071 C11.9048678,0.230836071 11.3745911,0.658718491 11.243497,1.25908966 C6.03860346,1.85124333 1.89739277,6.00355647 1.30879096,11.2224042 C0.709307627,11.3532646 0.281783916,11.885299 0.281783916,12.5004692 C0.281783916,13.1156393 0.709307627,13.6476737 1.30879096,13.7785342 C1.89936133,18.9973819 6.03794727,23.1523268 11.243497,23.7418487 C11.3745911,24.3422198 11.9048678,24.7701023 12.5178166,24.7701023 C13.1307655,24.7701023 13.6610422,24.3422198 13.7921363,23.7418487 C18.9970298,23.149695 23.1382405,18.9980398 23.7268423,13.7791921 C24.328499,13.6501153 24.7584098,13.1170642 24.7584098,12.5001402 C24.7584098,11.8832162 24.328499,11.3501651 23.7268423,11.2210883 L23.7268423,11.2210883 Z M12.0178004,1.19790045 C12.0374733,1.17022966 12.059423,1.14425958 12.0834193,1.12026252 L12.1004802,1.10249791 C12.1242167,1.0784792 12.1498958,1.0564724 12.1772544,1.03670306 L12.1930029,1.02683383 C12.2185512,1.01034446 12.2453134,0.995827707 12.273058,0.98340923 L12.290119,0.975513847 C12.3217935,0.962660049 12.3545025,0.952534905 12.3878912,0.945248215 L12.4102016,0.940642576 C12.482077,0.925913256 12.5561811,0.925913256 12.6280564,0.940642576 L12.6503669,0.945248215 C12.6837556,0.952534905 12.7164645,0.962660049 12.7481391,0.975513847 L12.7652,0.98340923 C12.7929446,0.995827707 12.8197069,1.01034446 12.8452551,1.02683383 L12.8610036,1.03670306 C12.8883623,1.0564724 12.9140414,1.0784792 12.9377778,1.10249791 L12.9548387,1.12026252 C12.978835,1.14425958 13.0007847,1.17022966 13.0204576,1.19790045 C13.1663456,1.41160686 13.1586673,1.6951361 13.0014282,1.90058947 L13.0014282,1.90058947 C12.9767096,1.93314068 12.9487906,1.96311834 12.9180921,1.99007047 L12.8905322,2.01309867 C12.8718915,2.02784849 12.8523899,2.04147029 12.8321313,2.05389148 C12.8136678,2.06521694 12.7946109,2.07553967 12.7750428,2.08481506 L12.7422334,2.09928993 C12.712854,2.1111396 12.6825716,2.1206007 12.6516793,2.12758171 L12.6293688,2.1315294 C12.5579264,2.1461701 12.4842687,2.1461701 12.4128264,2.1315294 L12.3905159,2.12758171 C12.3596235,2.1206007 12.3293412,2.1111396 12.2999618,2.09928993 L12.2671523,2.08481506 C12.2475843,2.07553967 12.2285273,2.06521694 12.2100639,2.05389148 C12.1898053,2.04147029 12.1703037,2.02784849 12.151663,2.01309867 L12.1241031,1.99007047 C12.0934046,1.96311834 12.0654856,1.93314068 12.040767,1.90058947 L12.040767,1.90058947 C11.8823224,1.69600115 11.8730549,1.41245142 12.0178004,1.19790045 L12.0178004,1.19790045 Z M1.2451406,12.9995231 C1.21860053,12.9809405 1.19358555,12.9602588 1.17033502,12.937676 L1.15064934,12.9179375 C1.128129,12.8946228 1.10750276,12.8695409 1.08896755,12.8429314 L1.07846852,12.8258247 C1.06232685,12.8008272 1.04806976,12.7746558 1.03581621,12.7475288 C1.03581621,12.7416073 1.02991051,12.7356858 1.02728575,12.7291063 C1.01444517,12.6973544 1.00434653,12.6645559 0.997101043,12.631072 C0.997101043,12.6238345 0.997101043,12.6159391 0.992507718,12.6087017 C0.977871011,12.5368498 0.977871011,12.4627727 0.992507718,12.3909207 C0.992507718,12.3830254 0.992507718,12.3757879 0.997101043,12.3685505 C1.00434653,12.3350666 1.01444517,12.3022681 1.02728575,12.2705162 C1.02728575,12.2639367 1.03319145,12.2580151 1.03581621,12.2520936 C1.04806976,12.2249666 1.06232685,12.1987952 1.07846852,12.1737977 L1.08896755,12.1566911 C1.1074938,12.1300747 1.12812062,12.1049922 1.15064934,12.0816849 L1.17033502,12.0619465 C1.2883965,11.9479237 1.44797569,11.8875145 1.61173376,11.8948536 C1.77549183,11.9021927 1.92905964,11.9766361 2.0365049,12.1007654 C2.04503536,12.1099767 2.05290963,12.1198459 2.0607839,12.1297152 C2.0886149,12.1653257 2.11238553,12.2039462 2.13165235,12.2448562 C2.13690186,12.2553833 2.14149519,12.2665685 2.14608851,12.2770956 C2.15791862,12.3067747 2.16735428,12.3373578 2.17430465,12.3685505 C2.17430465,12.3757879 2.17430465,12.3836833 2.17824179,12.3909207 C2.19279011,12.4623385 2.19279011,12.535968 2.17824179,12.6073858 C2.17824179,12.6146232 2.17824179,12.6225186 2.17430465,12.6297561 C2.16735428,12.6609487 2.15791862,12.6915318 2.14608851,12.7212109 C2.14149519,12.732396 2.13624567,12.7429232 2.13165235,12.7534504 C2.11238553,12.7943604 2.0886149,12.8329809 2.0607839,12.8685914 C2.05290963,12.8784606 2.04503536,12.8883298 2.0365049,12.8975411 C1.83709354,13.1286149 1.49634673,13.1725265 1.2451406,12.9995231 L1.2451406,12.9995231 Z M12.5178166,24.1129316 C12.1840432,24.1129316 11.9134663,23.8416294 11.9134663,23.5069611 C11.9134663,23.1722927 12.1840432,22.9009905 12.5178166,22.9009905 C12.8515901,22.9009905 13.122167,23.1722927 13.122167,23.5069611 C13.1218053,23.8414791 12.8514402,24.112569 12.5178166,24.1129316 L12.5178166,24.1129316 Z M13.7527649,23.0385017 C13.572662,22.5095108 13.0769282,22.1539686 12.5194571,22.1539686 C11.9619861,22.1539686 11.4662522,22.5095108 11.2861493,23.0385017 C6.42103051,22.4601199 2.58484395,18.6144647 2.00697638,13.7364255 C2.53405968,13.5555491 2.88818453,13.0587319 2.88818453,12.5001402 C2.88818453,11.9415485 2.53405968,11.4447313 2.00697638,11.2638549 C2.58437488,6.38620528 6.41961381,2.54041221 11.2841808,1.96112074 C11.4642837,2.49011162 11.9600175,2.84565382 12.5174885,2.84565382 C13.0749596,2.84565382 13.5706934,2.49011162 13.7507963,1.96112074 C18.6148114,2.54132171 22.4491028,6.38725267 23.0260321,11.2645129 C22.5004222,11.4462534 22.1476891,11.9423359 22.1476891,12.4998112 C22.1476891,13.0572865 22.5004222,13.5533691 23.0260321,13.7351096 C22.4492905,18.6117243 18.6160134,22.4574541 13.7527649,23.0385017 L13.7527649,23.0385017 Z M23.4538676,13.103479 C23.2088981,13.1048102 22.9873594,12.957732 22.8929376,12.7310809 C22.7985159,12.5044299 22.8498914,12.2430465 23.023019,12.0692652 C23.1961466,11.8954839 23.4567749,11.8436855 23.6829228,11.9381131 C23.9090707,12.0325406 24.0559973,12.2545126 24.054937,12.5001402 C24.0542167,12.8338889 23.7847544,13.1043677 23.451899,13.1054528 L23.4538676,13.103479 Z" id="Shape"></path>
                        <path d="M13.8026353,6.28976408 C13.6971074,5.66056043 13.1538211,5.19977598 12.5174885,5.19977598 C11.881156,5.19977598 11.3378697,5.66056043 11.2323418,6.28976408 C8.29657273,6.90047334 6.19168239,9.49381672 6.19168239,12.5001402 C6.19168239,15.5064637 8.29657273,18.0998071 11.2323418,18.7105163 C11.3378697,19.33972 11.881156,19.8005044 12.5174885,19.8005044 C13.1538211,19.8005044 13.6971074,19.33972 13.8026353,18.7105163 C16.7384044,18.0998071 18.8432947,15.5064637 18.8432947,12.5001402 C18.8432947,9.49381672 16.7384044,6.90047334 13.8026353,6.28976408 L13.8026353,6.28976408 Z M12.5178166,5.90354829 C12.7716906,5.90254635 12.9988785,6.06141748 13.0856625,6.30063943 C13.1724464,6.53986139 13.100153,6.80796045 12.9049683,6.9707408 L12.8885636,6.98389977 C12.8676838,7.00002838 12.845763,7.0147547 12.8229447,7.02798232 C12.8058837,7.0385095 12.7881666,7.04837872 12.7704495,7.05693206 L12.7343591,7.07272282 C12.7056063,7.0842697 12.6759848,7.09351 12.6457736,7.10035666 L12.6241193,7.10430435 C12.5526769,7.11894505 12.4790192,7.11894505 12.4075768,7.10430435 L12.3859226,7.10035666 C12.3557114,7.09351 12.3260899,7.0842697 12.297337,7.07272282 L12.2612466,7.05693206 C12.2428733,7.04837872 12.2258124,7.0385095 12.2087515,7.02798232 C12.1859332,7.0147547 12.1640124,7.00002838 12.1431326,6.98389977 L12.1267278,6.9707408 C11.9309646,6.80750277 11.8588572,6.5383917 11.9466733,6.29876162 C12.0344894,6.05913154 12.2632182,5.90085836 12.5178166,5.90354829 L12.5178166,5.90354829 Z M13.000772,18.8493435 C12.9882818,18.8662588 12.9749212,18.8825103 12.9607444,18.8980316 C12.952214,18.9079009 12.9430273,18.9171121 12.9338407,18.9263234 C12.9120997,18.9471033 12.8888505,18.9662363 12.8642846,18.983565 L12.8373808,19.0006716 C12.8148513,19.0149471 12.7913949,19.0276958 12.7671686,19.0388326 L12.7468267,19.0487019 C12.7155864,19.0615116 12.6833171,19.0716366 12.6503669,19.0789675 L12.6254317,19.0835731 C12.5542049,19.0981605 12.4807722,19.0981605 12.4095454,19.0835731 L12.3846102,19.0789675 C12.35166,19.0716366 12.3193907,19.0615116 12.2881504,19.0487019 L12.2678085,19.0388326 C12.2435822,19.0276958 12.2201258,19.0149471 12.1975963,19.0006716 L12.1706925,18.983565 C12.1461266,18.9662363 12.1228773,18.9471033 12.1011364,18.9263234 C12.0919498,18.9171121 12.0834193,18.9072429 12.0742327,18.8980316 C11.9615833,18.7775978 11.9036669,18.6157876 11.9142329,18.4510148 C11.9247989,18.2862419 12.002905,18.133201 12.1300088,18.0282237 L12.1464135,18.0150647 C12.1672933,17.9989361 12.1892141,17.9842098 12.2120324,17.9709822 C12.2290933,17.960455 12.2468105,17.9505858 12.2645276,17.9420324 L12.300618,17.9262417 C12.3293708,17.9146948 12.3589923,17.9054545 12.3892035,17.8986078 L12.4108578,17.8946601 C12.4823002,17.8800194 12.5559579,17.8800194 12.6274003,17.8946601 L12.6490545,17.8986078 C12.6792657,17.9054545 12.7088872,17.9146948 12.7376401,17.9262417 L12.7737305,17.9420324 C12.7921038,17.9505858 12.8091647,17.960455 12.8262256,17.9709822 C12.8490439,17.9842098 12.8709647,17.9989361 12.8918445,18.0150647 L12.9082493,18.0282237 C13.153988,18.2326136 13.194836,18.5951311 13.000772,18.8493435 L13.000772,18.8493435 Z M13.7291421,18.0045375 C13.5321247,17.5066603 13.0520206,17.1797648 12.5178166,17.1797648 C11.9836127,17.1797648 11.5035086,17.5066603 11.3064912,18.0045375 C8.72914577,17.4347621 6.89374509,15.1444881 6.89374509,12.4981663 C6.89374509,9.85184456 8.72914577,7.56157061 11.3064912,6.99179515 C11.5035086,7.48967241 11.9836127,7.81656787 12.5178166,7.81656787 C13.0520206,7.81656787 13.5321247,7.48967241 13.7291421,6.99179515 C16.3085916,7.55998929 18.1461908,9.85137551 18.1460331,12.4994178 C18.1458753,15.1474602 16.3080031,17.4386262 13.7284859,18.0065114 L13.7291421,18.0045375 Z" id="Shape"></path>
                    </g>
                </g>
                <path d="M44.0117188,116.689453 C44.0117188,116.689453 30.8945312,100.152344 30.8945312,94.3125 C30.8945312,88.4726563 52.7910156,59.3828125 63.421875,55.3007813 C74.0527344,51.21875 104.755859,52.5585942 104.755859,58.3984375 C104.755859,64.2382808 105.998047,71.5625 105.998047,71.5625 C105.998047,71.5625 102.884766,61.0585936 108.595703,61.0585938 C114.306641,61.0585939 117.388672,72.2070311 124.212891,75.546875 C131.037109,78.8867189 147.751953,81.9687499 145.025391,89.6640625 C142.298828,97.3593751 133.263672,108.232422 133.263672,112.460938 C133.263672,116.689453 128.310547,129.365234 128.310547,129.365234 C128.310547,129.365234 57.515625,125.509766 54.2890625,122.896484" id="Path-9" stroke="#DDDDDD" stroke-width="2" fill="#FFFFFF"></path>
                <ellipse id="Oval-8" fill="#D2BB9D" cx="88" cy="157.5" rx="34" ry="10.5"></ellipse>
                <path d="M88.7441406,72.1035156 C78.6777344,72.1035156 45.1503906,71.9453125 45.1503906,103.404297 C45.1503906,134.863281 34.7381156,153.03125 49.9746094,157.257812 C65.2111032,161.484375 75.9218751,165.566407 87.0996094,165.566406 C98.2773437,165.566406 119.816406,161.339847 127.671879,157.257815 C135.527351,153.175783 127.671871,136.478516 127.671875,106.662109 C127.671879,76.8457032 98.8105469,72.1035156 88.7441406,72.1035156 Z" id="Path-3" stroke="#DAC4A8" stroke-width="2" fill="url(#linearGradient-2)"></path>
                <circle id="Oval-2" stroke="#9AD3F5" stroke-width="3" cx="88.5" cy="87.5" r="87.5"></circle>
                <path d="M162,90 C162,70.397258 154.479475,52.5510288 142.166255,39.1891431" id="Oval-6" stroke="#FFFFFF" stroke-width="5" stroke-linecap="round"></path>
                <path d="M127.086095,26.6000768 C115.491018,19.2534468 101.742232,15 87,15" id="Oval-6-Copy" stroke="#FFFFFF" stroke-width="5" stroke-linecap="round"></path>
                <use id="Rectangle-1" stroke="#979797" mask="url(#mask-4)" stroke-width="2" fill="#878787" xlink:href="#path-3"></use>
                <use id="Rectangle-1-Copy" stroke="#979797" mask="url(#mask-6)" stroke-width="2" fill="#878787" xlink:href="#path-5"></use>
                <use id="Rectangle-1-Copy-2" stroke="#979797" mask="url(#mask-8)" stroke-width="2" fill="#F4EADE" xlink:href="#path-7"></use>
                <use id="Rectangle-1-Copy-3" stroke="#979797" mask="url(#mask-10)" stroke-width="2" fill="#F4EADE" xlink:href="#path-9"></use>
                <use id="Rectangle-3" stroke="#979797" mask="url(#mask-12)" stroke-width="2" fill="#878787" xlink:href="#path-11"></use>
                <use id="Rectangle-3-Copy" stroke="#979797" mask="url(#mask-14)" stroke-width="2" fill="#878787" xlink:href="#path-13"></use>
                <polyline id="Path-4" stroke="#C7AD89" points="84.9755859 89.5400391 84.6689453 101.793945 91.0498047 102.229492 90.1865234 89.4189453"></polyline>
                <path d="M60.7001953,140.992188 C60.7001953,140.992188 75.9794922,145.388672 86.1279297,145.388672 C96.2763672,145.388672 114.936523,139.685547 114.936523,139.685547" id="Path-5" stroke="#C9AD8B"></path>
                <path d="M67.8798828,129.923828 C67.8798828,129.923828 61.5068359,141.064453 56.3037109,145.146484" id="Path-6" stroke="#C9AD8B"></path>
                <path d="M107.37793,130.166016 C107.37793,130.166016 113.477539,139.25 118.631836,144.332031" id="Path-7" stroke="#C9AD8B"></path>
                <g id="Oval-1">
                    <use fill="#F1C5A5" fill-rule="evenodd" xlink:href="#path-16"></use>
                    <use fill="url(#linearGradient-15)" fill-rule="evenodd" style="mix-blend-mode: overlay;" xlink:href="#path-16"></use>
                    <use stroke="#E8BA92" stroke-width="1" xlink:href="#path-16"></use>
                </g>
                <path d="M102.431641,78.6796875 C102.431641,78.6796875 106.884766,70.2578125 99.3339844,70.2578125 C91.7832031,70.2578125 98.0898438,77.8398438 79.9082031,85.0195312 C61.7265625,92.1992188 37.4609375,97.1523438 37.4609375,97.1523438 L46.5273438,82.9023438 L66.9375,64.5898438 L95.5097656,60.3789062 L103.189453,67.4296875 L109.029297,72.7695312" id="Path-8-Copy" fill="#FFFFFF"></path>
                <path d="M102.431641,78.6796875 C102.431641,78.6796875 106.884766,70.2578125 99.3339844,70.2578125 C91.7832031,70.2578125 98.0898438,77.8398438 79.9082031,85.0195312 C61.7265625,92.1992188 37.4609375,97.1523438 37.4609375,97.1523438" id="Path-8" stroke="#D6D6D6" stroke-width="2"></path>
                <path d="M113,116 C114.795067,116 116.313961,114.817566 116.820288,113.189093 C116.937083,112.813449 113.812012,112 109.824746,110.943382 C109.230781,110.785982 109,111.560263 109,112 C109,114.209139 110.790861,116 113,116 Z" id="Oval-3" fill="#665555"></path>
                <path d="M60,116 C61.7950669,116 63.3139615,114.817566 63.8202876,113.189093 C63.937083,112.813449 60.8120117,112 56.824746,110.943382 C56.2307808,110.785982 56,111.560263 56,112 C56,114.209139 57.790861,116 60,116 Z" id="Oval-3-Copy" fill="#665555" transform="translate(59.911729, 113.461300) scale(-1, 1) translate(-59.911729, -113.461300) "></path>
                <path d="M69.2167969,110.078125 C65.0878906,110.078125 51.4550781,114.773438 51.4550781,114.773438" id="Path-12" stroke="#DBC5A8"></path>
                <path d="M122.216797,110.078125 C118.087891,110.078125 104.455078,114.773438 104.455078,114.773438" id="Path-12-Copy" stroke="#DBC5A8" transform="translate(113.335938, 112.425781) scale(-1, 1) translate(-113.335938, -112.425781) "></path>
                <g id="Group" transform="translate(140.000000, 166.000000)" stroke="#979797">
                    <path d="M2.18164062,34.765625 C2.18164062,34.765625 22.0153854,27.7167969 22.0153854,21.1191406" id="Path-14"></path>
                    <path d="M2.18164062,27.765625 C2.18164062,27.765625 23.640625,19.9026557 23.640625,12.5429688" id="Path-14-Copy"></path>
                    <path d="M1.18164062,19.765625 C1.18164062,19.765625 21.0153854,12.7167969 21.0153854,6.11914062" id="Path-14-Copy-2"></path>
                    <path d="M0.181640625,11.765625 C0.181640625,11.765625 16.1816406,5.77382923 16.1816406,0.165548239" id="Path-14-Copy-3"></path>
                </g>
                <g id="Group-Copy" transform="translate(26.500685, 183.473832) scale(-1, 1) rotate(-3.000000) translate(-26.500685, -183.473832) translate(14.000685, 165.973832)" stroke="#979797">
                    <path d="M2.18164062,34.765625 C2.18164062,34.765625 22.0153854,27.7167969 22.0153854,21.1191406" id="Path-14"></path>
                    <path d="M1.18301109,27.713289 C1.18301109,27.713289 25,19.475831 25,11.765625" id="Path-14-Copy"></path>
                    <path d="M1.18164062,19.765625 C1.18164062,19.765625 21.0153854,12.7167969 21.0153854,6.11914062" id="Path-14-Copy-2"></path>
                    <path d="M0.181640625,11.765625 C0.181640625,11.765625 16.1816406,5.77382923 16.1816406,0.165548239" id="Path-14-Copy-3"></path>
                </g>
            </g>
        </g>
    </g>
</svg>